<svg width="21" height="21" viewBox="0 0 21 21" fill="none" xmlns="http://www.w3.org/2000/svg">
<path d="M7.72592 8.99827L9.99549 7.29647L10.0066 4.87668L6.88283 2.57654C5.87857 3.03587 4.96417 3.68348 4.19238 4.49199L5.33845 8.17628L7.72592 8.99827Z" fill="white"/>
<path d="M8.40894 9.7687L9.15295 12.0344H11.8852L12.6623 9.81583L10.5002 8.19989L8.40894 9.7687Z" fill="white"/>
<path d="M13.6764 10.0266L12.8203 12.4689L14.2225 14.7647L18.0874 14.783C18.345 14.3271 18.5748 13.8498 18.7513 13.3371C18.9537 12.7494 19.1216 12.1546 19.1946 11.5608L16.0191 9.27844L13.6764 10.0266Z" fill="white"/>
<path d="M11.0212 7.30826L13.3549 9.05266L15.7106 8.3005L16.9465 4.62142C16.1786 3.77659 15.2367 3.07357 14.1506 2.57471L11.0325 4.85656L11.0212 7.30826Z" fill="white"/>
<path d="M3.40948 5.43127C2.93172 6.09918 2.53795 6.84279 2.25714 7.65785C1.9766 8.4729 1.78498 9.30143 1.75 10.1218L4.32348 8.36928L3.40948 5.43127Z" fill="white"/>
<path d="M8.24264 12.5509L7.3954 9.96936L5.00446 9.1463L1.78845 11.344C1.90903 12.5583 2.32724 13.7259 2.9193 14.7768L6.74806 14.7617L8.24264 12.5509Z" fill="white"/>
<path d="M13.4083 18.7001C14.9786 18.1422 16.3859 17.1545 17.4223 15.8063L14.3371 15.7919L13.4083 18.7001Z" fill="white"/>
<path d="M9.13562 13.0605L7.58496 15.3545L8.7572 19.036C9.33751 19.1551 9.91969 19.2517 10.4964 19.2517C11.0842 19.2517 11.6602 19.1399 12.2277 19.024L13.3926 15.3752L11.979 13.0605H9.13562Z" fill="white"/>
<path d="M12.9937 2.14965C11.1639 1.60379 9.75763 1.63103 8.02832 2.14631L10.5054 3.97056L12.9937 2.14965Z" fill="white"/>
<path d="M3.58655 15.8003C4.57519 17.0942 5.9349 18.1236 7.57622 18.7089L6.64633 15.7883L3.58655 15.8003Z" fill="white"/>
<path d="M19.2501 10.3331C19.2159 8.62686 18.6454 6.98287 17.7024 5.59485L16.7197 8.51963L19.2501 10.3331Z" fill="white"/>
</svg>
