<svg width="7" height="13" viewBox="0 0 7 13" fill="none" xmlns="http://www.w3.org/2000/svg">
<path d="M6.73205 1.21826C6.91428 1.4027 7.00453 1.63658 7.00282 1.91991C7.0011 2.20324 6.90803 2.43602 6.72359 2.61824L4.22282 5.08894C3.43706 5.86526 3.4294 7.13156 4.20571 7.91732L6.67642 10.4181C6.85864 10.6025 6.94889 10.8364 6.94718 11.1197C6.94547 11.4031 6.85239 11.6358 6.66795 11.8181C6.48351 12.0003 6.24963 12.0905 5.9663 12.0888C5.68297 12.0871 5.4502 11.994 5.26798 11.8096L0.69588 7.18187C0.596487 7.08127 0.526143 6.97251 0.484849 6.85559C0.444222 6.73867 0.424311 6.61355 0.425118 6.48022C0.425924 6.34689 0.447347 6.22202 0.489385 6.1056C0.532089 5.98919 0.603744 5.88129 0.704346 5.78189L5.33208 1.2098C5.51652 1.02758 5.7504 0.93732 6.03373 0.939034C6.31706 0.940747 6.54983 1.03382 6.73205 1.21826Z" fill="white"/>
</svg>
