<svg width="7" height="13" viewBox="0 0 7 13" fill="none" xmlns="http://www.w3.org/2000/svg">
<path d="M0.700048 11.8C0.516715 11.6167 0.425049 11.3834 0.425049 11.1C0.425049 10.8167 0.516715 10.5834 0.700048 10.4L3.18583 7.91426C3.96688 7.13321 3.96688 5.86688 3.18584 5.08583L0.700048 2.60005C0.516715 2.41672 0.425049 2.18338 0.425049 1.90005C0.425049 1.61672 0.516715 1.38338 0.700048 1.20005C0.883382 1.01672 1.11671 0.925049 1.40005 0.925049C1.68338 0.925049 1.91672 1.01672 2.10005 1.20005L6.70005 5.80005C6.80005 5.90005 6.87105 6.00838 6.91305 6.12505C6.95438 6.24172 6.97505 6.36672 6.97505 6.50005C6.97505 6.63338 6.95438 6.75838 6.91305 6.87505C6.87105 6.99172 6.80005 7.10005 6.70005 7.20005L2.10005 11.8C1.91672 11.9834 1.68338 12.075 1.40005 12.075C1.11671 12.075 0.883382 11.9834 0.700048 11.8Z" fill="white"/>
</svg>
