<svg width="20" height="21" viewBox="0 0 20 21" fill="none" xmlns="http://www.w3.org/2000/svg">
<g clip-path="url(#clip0_4_814)">
<path d="M10.5127 1.75V3.86094C11.9649 3.97233 13.2868 4.54836 14.3309 5.44415L15.7804 3.99462C14.3603 2.73133 12.5293 1.86816 10.5127 1.75V1.75Z" fill="white"/>
<path d="M9.48732 1.75C7.47071 1.86816 5.6397 2.73133 4.2196 3.99462L5.66913 5.44415C6.71326 4.54836 8.03509 3.97233 9.48732 3.86094V1.75Z" fill="white"/>
<path d="M3.36094 9.98732C3.47233 8.53509 4.04836 7.21326 4.94415 6.16913L3.49462 4.7196C2.23133 6.1397 1.36816 7.97071 1.25 9.98732H3.36094Z" fill="white"/>
<path d="M10 8.1488L8.18755 9.96125C7.98777 10.1615 7.98777 10.4865 8.18755 10.6868C8.38231 10.8815 8.71878 10.8805 8.91254 10.6868L10 9.59926L11.0875 10.6867C11.2822 10.8805 11.6192 10.8805 11.8119 10.6867C12.0122 10.4865 12.0122 10.1615 11.8124 9.96122L10 8.1488Z" fill="white"/>
<path d="M10 4.86035C6.8903 4.86035 4.36035 7.3903 4.36035 10.5C4.36035 13.6097 6.8903 16.1397 10 16.1397C13.1097 16.1397 15.6397 13.6097 15.6397 10.5C15.6397 7.3903 13.1097 4.86035 10 4.86035ZM12.5374 11.4118C12.0066 11.9435 11.1501 12.0303 10.5127 11.5352V13.0635H11.5381V14.0889H8.46192V13.0635H9.48731V11.5093C8.89412 11.9668 7.99909 11.9488 7.46206 11.4118C6.86275 10.8119 6.86275 9.8361 7.46257 9.23631L10 6.69885L12.5374 9.23628C13.1373 9.8361 13.1373 10.8119 12.5374 11.4118Z" fill="white"/>
<path d="M14.3309 15.5559C13.2868 16.4517 11.9649 17.0277 10.5127 17.1391V19.2501C12.5293 19.1319 14.3603 18.2687 15.7804 17.0054L14.3309 15.5559Z" fill="white"/>
<path d="M15.0559 14.8309L16.5054 16.2804C17.7687 14.8603 18.6319 13.0293 18.7501 11.0127H16.6391C16.5277 12.4649 15.9517 13.7868 15.0559 14.8309Z" fill="white"/>
<path d="M15.0559 6.16913C15.9517 7.21322 16.5277 8.53509 16.6391 9.98732H18.7501C18.6319 7.97071 17.7687 6.1397 16.5054 4.7196L15.0559 6.16913Z" fill="white"/>
<path d="M4.94415 14.8309C4.04836 13.7868 3.47233 12.4649 3.36094 11.0127H1.25C1.36816 13.0293 2.23133 14.8603 3.49462 16.2804L4.94415 14.8309Z" fill="white"/>
<path d="M4.2196 17.0054C5.6397 18.2687 7.47071 19.1319 9.48732 19.2501V17.1391C8.03509 17.0277 6.71326 16.4517 5.66913 15.5559L4.2196 17.0054Z" fill="white"/>
</g>
<defs>
<clipPath id="clip0_4_814">
<rect width="17.5" height="17.5" fill="white" transform="translate(1.25 1.75)"/>
</clipPath>
</defs>
</svg>
