<svg width="20" height="20" viewBox="0 0 20 20" fill="none" xmlns="http://www.w3.org/2000/svg">
<mask id="mask0_4_708" style="mask-type:alpha" maskUnits="userSpaceOnUse" x="0" y="0" width="20" height="20">
<rect width="20" height="20" fill="#D9D9D9"/>
</mask>
<g mask="url(#mask0_4_708)">
<path d="M10.0001 18.3333C8.8473 18.3333 7.76397 18.1144 6.75008 17.6767C5.73619 17.2394 4.85425 16.6458 4.10425 15.8958C3.35425 15.1458 2.76064 14.2639 2.32341 13.25C1.88564 12.2361 1.66675 11.1528 1.66675 9.99999C1.66675 8.84721 1.88564 7.76388 2.32341 6.74999C2.76064 5.7361 3.35425 4.85416 4.10425 4.10416C4.85425 3.35416 5.73619 2.76027 6.75008 2.32249C7.76397 1.88527 8.8473 1.66666 10.0001 1.66666C11.1529 1.66666 12.2362 1.88527 13.2501 2.32249C14.264 2.76027 15.1459 3.35416 15.8959 4.10416C16.6459 4.85416 17.2395 5.7361 17.6767 6.74999C18.1145 7.76388 18.3334 8.84721 18.3334 9.99999C18.3334 11.1528 18.1145 12.2361 17.6767 13.25C17.2395 14.2639 16.6459 15.1458 15.8959 15.8958C15.1459 16.6458 14.264 17.2394 13.2501 17.6767C12.2362 18.1144 11.1529 18.3333 10.0001 18.3333ZM14.1667 7.91666L15.2917 7.54166L15.6251 6.41666C15.1806 5.74999 14.6459 5.17693 14.0209 4.69749C13.3959 4.2186 12.7084 3.8611 11.9584 3.62499L10.8334 4.41666V5.58332L14.1667 7.91666ZM5.83341 7.91666L9.16675 5.58332V4.41666L8.04175 3.62499C7.29175 3.8611 6.60425 4.2186 5.97925 4.69749C5.35425 5.17693 4.81953 5.74999 4.37508 6.41666L4.70841 7.54166L5.83341 7.91666ZM4.95841 14.3333L5.91675 14.25L6.54175 13.125L5.33341 9.49999L4.16675 9.08332L3.33341 9.70832C3.33341 10.6111 3.45841 11.4339 3.70841 12.1767C3.95841 12.92 4.37508 13.6389 4.95841 14.3333ZM10.0001 16.6667C10.3612 16.6667 10.7154 16.6389 11.0626 16.5833C11.4098 16.5278 11.7501 16.4444 12.0834 16.3333L12.6667 15.0833L12.1251 14.1667H7.87508L7.33341 15.0833L7.91675 16.3333C8.25008 16.4444 8.59036 16.5278 8.93758 16.5833C9.2848 16.6389 9.63897 16.6667 10.0001 16.6667ZM8.12508 12.5H11.8751L13.0417 9.16666L10.0001 7.04166L7.00008 9.16666L8.12508 12.5ZM15.0417 14.3333C15.6251 13.6389 16.0417 12.92 16.2917 12.1767C16.5417 11.4339 16.6667 10.6111 16.6667 9.70832L15.8334 9.12499L14.6667 9.49999L13.4584 13.125L14.0834 14.25L15.0417 14.3333Z" fill="white" fill-opacity="0.6"/>
</g>
</svg>
